PathFileType	4	(X/Y/Z)	Patient4_TMGait_0pt8_01_left_10.trc.trc
DataRate	CameraRate	NumFrames	NumMarkers	Units	OrigDataRate	OrigDataStartFrame	OrigNumFrames
89.743589743590	89.743589743590	6	33	mm	89.743589743590	36	       141
Frame#	Time	Sacral			L.Shoulder			Chest			R.Shoulder			Neck			R.ASIS			L.ASIS			R.Thigh.Superior			R.Thigh.Lateral			R.Thigh.Inferior			R.Patella			L.Thigh.Superior			L.Thigh.Lateral			L.Thigh.Inferior			L.Patella			L.Shank.Superior			L.Shank.Lateral			L.Shank.Inferior			R.Shank.Superior			R.Shank.Lateral			R.Shank.Inferior			R.Heel			R.Midfoot.Superior			R.Midfoot.Lateral			R.Toe			L.Heel			L.Midfoot.Lateral			L.Midfoot.Superior			L.Toe			L.Elbow			L.Wrist			R.Elbow			R.Wrist			
		X1	Y1	Z1	X2	Y2	Z2	X3	Y3	Z3	X4	Y4	Z4	X5	Y5	Z5	X6	Y6	Z6	X7	Y7	Z7	X8	Y8	Z8	X9	Y9	Z9	X10	Y10	Z10	X11	Y11	Z11	X12	Y12	Z12	X13	Y13	Z13	X14	Y14	Z14	X15	Y15	Z15	X16	Y16	Z16	X17	Y17	Z17	X18	Y18	Z18	X19	Y19	Z19	X20	Y20	Z20	X21	Y21	Z21	X22	Y22	Z22	X23	Y23	Z23	X24	Y24	Z24	X25	Y25	Z25	X26	Y26	Z26	X27	Y27	Z27	X28	Y28	Z28	X29	Y29	Z29	X30	Y30	Z30	X31	Y31	Z31	X32	Y32	Z32	X33	Y33	Z33	

36	10.770000000000	871.799631401620	997.141720041605	481.652359071905	1031.908017742063	1421.990458377602	297.649209965964	1144.771297279610	1355.428213419338	453.692235551130	1069.172545100901	1430.021031742778	631.299212772902	1024.289514241493	1483.219390878364	455.448545526535	1095.647878732357	926.937002567500	596.325551689985	1083.879516304470	949.005491270991	321.680970907397	1093.971460845510	712.905244935091	577.788221799857	987.445448668233	621.087597712203	638.140217645490	1056.045105761544	549.068592021536	567.829112304235	1031.246400227639	449.028785206098	583.002398192368	1161.535581950129	766.398025082015	361.037565372407	1104.549493121108	635.895394960803	290.076251396219	1202.126260371100	574.529788072151	356.118093574764	1216.916894421347	503.345689097705	363.223617510407	1196.443924008768	427.015503720497	353.924586460277	1120.151121428669	305.969038576789	297.354168822344	1179.581610039438	198.301389490661	367.678431275751	960.200670034555	381.820366645009	588.735251586364	844.632237343736	328.021117415810	647.660097470392	841.892716474521	219.084033385141	594.518740607692	649.625824102632	115.446622362997	561.508528653492	824.984797394070	107.970749822833	608.359968574264	719.827991179369	76.689863434100	637.579770138617	916.237616553981	34.761135746816	639.252780979229	1060.974530617637	38.433188679045	401.990289042927	1138.031365592918	36.533746103088	323.837958953871	1219.022326211345	98.007573056220	354.901010434637	1348.641535105651	48.897834921932	331.278354765171	908.184561216883	1088.803211356572	212.076539957139	855.548888729989	835.570828970133	236.486108361851	1183.755758735661	1108.836491036601	748.568954761377	1403.284688735320	1208.266452212445	687.396465614190	
37	10.781142857143	872.209486665520	998.751218936639	478.356768638166	1032.182927192511	1424.472148516634	295.881876301898	1144.571125594714	1357.754392042300	452.159929480464	1068.035654145213	1431.729777649011	629.589753554162	1023.727294203154	1485.164796730529	453.722548815995	1095.804918760717	928.834640206741	593.156227136461	1084.743131233153	951.355700315708	318.836029124967	1098.263619987947	715.185831444000	575.364050689202	994.242579457045	621.484759159206	636.293455223304	1065.031002264988	550.217509924307	566.644902622784	1041.167777165907	448.487043114883	583.561292386913	1161.034860939490	766.281648015254	357.565212010651	1101.397487877024	636.125293818679	288.134745683763	1198.056052741835	573.642267280686	354.314468850713	1211.839224055508	502.633404526467	362.209560758788	1190.818027436655	426.478464178675	352.942280415171	1113.715001076144	305.959242301731	296.499207092679	1171.788486249741	198.002457606959	367.349533721419	967.509109629159	382.465264551045	588.859526473622	849.453554661291	333.390875227829	647.009206205064	843.630418092475	224.023206398916	595.073725691650	648.080025058956	129.400397426452	561.125609778791	822.375642334802	111.337740208449	609.184255563125	715.364310323721	86.023939764330	637.263300973190	907.797897339036	33.650652609064	639.433933965245	1052.124628613881	38.391412802178	401.852216048913	1129.167552911826	36.531920845747	323.731428349351	1210.063240308301	98.086037287645	354.811305123353	1339.737061415546	49.143601072909	331.147936869117	914.125238233798	1089.187247637899	208.130862748734	867.795868447004	834.598654115710	231.344340041143	1173.841173001938	1106.598135424999	746.755134891657	1395.479808545823	1201.401752436125	686.637368043254	
38	10.792285714286	872.396542522000	1000.302867666477	475.145722552165	1032.525567876693	1426.905459358529	294.145518240545	1144.294491531382	1359.994254034296	450.731377467820	1066.670078127041	1433.339851143372	627.915442954613	1023.085875641526	1487.025738936522	452.005201138043	1095.806614478448	930.715271300172	590.160780860100	1085.435149318796	953.560225379045	316.156751129371	1102.956363124096	717.628557865025	573.091898298152	1001.655243508900	621.902388769819	634.606831556761	1074.640634190869	551.571773790172	565.498646200441	1051.757859223832	448.232079584304	583.926449096759	1160.091019640591	765.853644113837	354.145644244335	1097.743908361286	636.272011614337	286.196585426741	1193.476120748298	572.648173970236	352.474792714689	1206.215279643982	501.834282118295	361.026967208524	1184.696014326866	425.903247520010	351.789276508907	1106.816819464947	305.819956825922	295.607927536756	1163.757685498768	197.677349416498	366.934809159891	975.657685371994	383.302644355020	588.792367620714	855.296176642036	339.026853295984	646.200395058166	846.309331029168	229.412274541867	595.400101727734	647.914650527497	144.279127820705	560.367778432365	820.541463930378	115.454994053556	609.810092954419	711.891675281127	96.449530492885	636.693581448752	899.749154355651	32.543552463530	639.677360493839	1043.225234090186	38.341703481922	401.740370889920	1120.251308870461	36.489445873648	323.644155114426	1201.095032022288	98.089835547741	354.723319944805	1330.815507564625	49.225696959825	331.055644375931	920.285260460286	1089.636487488534	203.981079699727	881.083366336675	833.721833123721	226.058561263658	1163.094512950773	1104.380972737434	744.968808224901	1387.402661273573	1193.131034750248	686.062432682262	
39	10.803428571429	872.339411295766	1001.722853731145	472.050125988557	1032.944384188880	1429.200189551361	292.435569479508	1143.939110100826	1362.068644028825	449.417304927920	1065.083681023477	1434.795596690181	626.286492136362	1022.378410473499	1488.747001756758	450.294437968160	1095.640253735390	932.514316129565	587.379756793481	1085.922258458258	955.554565216268	313.659635391583	1107.953827026892	720.223014095182	570.989748379565	1009.553683428545	622.380450773934	633.077202965738	1084.701965545299	553.163208220059	564.373481590849	1062.865628061960	448.297539983514	584.043818000713	1158.720702806534	765.171760024295	350.822367777626	1093.733169226042	636.381380110660	284.229226983813	1188.524716492018	571.602103569660	350.567767718491	1200.196277922784	500.980180531242	359.625551066725	1178.223481923710	425.299508458221	350.457587861892	1099.598203044571	305.578723650275	294.620332614305	1155.562262911885	197.331443796982	366.423679487669	984.513923789486	384.350057054493	588.474666374050	862.063373707897	344.857228206805	645.203682293991	849.879025518761	235.195225494232	595.420552042160	649.150653135996	159.775023294125	559.202182281041	819.536399299834	120.351416823227	610.160371765400	709.535798439285	107.796020610831	635.832127817953	892.319910931109	31.602622164029	639.931396734994	1034.286231966374	38.296524655973	401.637596841406	1111.295462272620	36.413939480554	323.558864912479	1192.135523164104	98.021340810134	354.620361958308	1321.889600261579	49.143653263855	330.990544283641	926.633944618375	1090.081406630565	199.646864769243	895.303835425332	832.942425282843	220.637626618381	1151.624687680160	1102.207144311709	743.202832874918	1379.049790807522	1183.456811626658	685.660173522646	
40	10.814571428571	872.027204321764	1002.960195256932	469.089483173766	1033.431836650728	1431.285392051886	290.751233437220	1143.499005191425	1363.921768887366	448.224923738422	1063.291351189836	1436.060186665559	624.715721089019	1021.617113861946	1490.294281287690	448.592381522763	1095.298732379730	934.183146790651	584.836949420700	1086.180811930419	957.301107633313	311.348556140327	1113.138500783835	722.969627628951	569.056740584954	1017.791545096684	622.973313654340	631.698555291168	1095.036111617198	555.032611625147	563.262318405044	1074.348136847123	448.721973075230	583.904317813308	1156.962145881730	764.307234448932	347.615403659178	1089.483396013226	636.483879845409	282.216057568318	1183.328307389771	570.545599713314	348.565509180026	1193.925304321064	500.099228200486	357.983796391284	1171.533114480190	424.677900399290	348.954236359960	1092.177740276744	305.268018063264	293.505108573631	1147.268893109415	196.974271243225	365.812805279545	993.945893164932	385.629476380186	587.887833453068	869.641424942726	350.808548620763	644.008007002546	854.289936199177	241.296478072587	595.087047983051	651.765610016324	175.514501366567	557.625447917168	819.432366038037	125.989897366065	610.163381166672	708.413679815333	119.802696948773	634.655184811647	885.787876098474	31.034541312073	640.116679664646	1025.320668520508	38.265072001654	401.530277630443	1102.314780053323	36.315515293076	323.462100865080	1183.196741958750	97.893976645975	354.487675861669	1312.969261807103	48.921472317612	330.938459732071	933.168899284917	1090.453847846060	195.156529887850	910.357862146480	832.262677495410	215.090824874727	1139.550592092471	1100.101901091519	741.451390872540	1370.398670519517	1172.379845578297	685.419062370746	
41	10.825714285714	871.462432568914	1003.990100943738	466.272080747701	1033.964374983232	1433.114181096707	289.095774074942	1142.964590080652	1365.525297549155	447.157034773354	1061.311217413536	1437.117301221504	623.216324027801	1020.811029627371	1491.654189312788	446.903914772396	1094.781313632192	935.690700681923	582.539034907803	1086.201221487216	958.790048415223	309.218490383998	1118.382211561183	725.874578219990	567.273101489150	1026.216936315622	623.740424275859	630.463379969263	1105.469981668417	557.222376897972	562.169860756254	1086.076073488185	449.545519134177	583.540416325763	1154.872090169432	763.332398994653	344.524211200268	1085.075985572827	636.594129869469	280.161343731961	1177.988420148144	569.504802569270	346.451041790369	1187.521197367958	499.213230189961	356.109717908717	1164.731276309202	424.048747060745	347.298490367978	1084.637432591355	304.921209126486	292.262760331883	1138.932979879731	196.616922276969	365.105397941872	1003.831786345725	387.164436575767	587.055922351259	877.909880727384	356.805696070263	642.623610067214	859.500884620937	247.619384441591	594.387546295295	655.697489039464	191.079039176542	555.667301330654	820.316550687651	132.260313149841	609.758131549375	708.626449242168	132.130370679414	633.157789226315	880.468911128688	31.061030462885	640.133899843498	1016.341753784538	38.252927750560	401.409913787913	1093.323103059091	36.204938320507	323.345939413831	1174.284970858505	97.726588773427	354.315868945159	1304.060790421891	48.596174107596	330.885711662036	939.913971429536	1090.698478641673	190.545998433730	926.155841526771	831.692306578805	209.431510051446	1126.998692737061	1098.097941677520	739.709789816451	1361.405513198242	1159.905656889220	685.328156621773	
